<!-- <svg xmlns="http://www.w3.org/2000/svg" viewBox="0 0 19.1 27" height="27" width="19">
  <use height="100" width="100" id="use8121" xlink:href="#path0_fill" fill="#8bc34a"/>
  <defs id="defs8123">
    <path d="m0.9 5.4c-1.2 2.5-1.2 5.3-0.2 7.8 0.2 0.6 0.4 0.9 0.7 1.5L7 25.3c0.8 1.6 2.7 2.2 4.3 1.4 0.6-0.3 1.1-0.8 1.4-1.4l0 0 5.5-11.5C20.5 8.9 18.5 3.2 13.7 0.9 8.9-1.3 3.2 0.7 0.9 5.4l0 0z" id="path0_fill"/>
  </defs>
</svg> -->
<!-- <svg xmlns="http://www.w3.org/2000/svg" viewBox="0 0 19.1 27" height="27" width="19" fill="#8bc34a">
    <path d="m0.9 5.4c-1.2 2.5-1.2 5.3-0.2 7.8 0.2 0.6 0.4 0.9 0.7 1.5L7 25.3c0.8 1.6 2.7 2.2 4.3 1.4 0.6-0.3 1.1-0.8 1.4-1.4l0 0 5.5-11.5C20.5 8.9 18.5 3.2 13.7 0.9 8.9-1.3 3.2 0.7 0.9 5.4l0 0z" id="path0_fill"/>
</svg> -->
<svg xmlns='http://www.w3.org/2000/svg' height='26' viewBox='0 0 18.506041 25.999981'
width='18.409'>
    <path d='m0.90599 5.1792c-1.3614 2.7625-1.1413 6.1503 0.40042 8.793 1.866 3.5655 3.6958 7.1514 5.5852 10.704 0.99023 1.6213 3.5171 1.87 4.7922 0.44976 0.77683-0.94976 1.156-2.1536 1.7302-3.234 1.4806-3.1205 3.0214-6.2138 4.4616-9.3525 1.5868-3.871 0.09569-8.6872-3.3958-10.99-3.306-2.3456-8.1276-2.1017-11.188 0.5504-1.0034 0.8402-1.8216 1.9004-2.386 3.0791z'
    fill='#4CAF50' />
    <path d='m8.748 0.019531c-0.9953 0.04939-1.9828 0.25404-2.9121 0.61133-0.9292
      0.35729-1.7993 0.86584-2.5605 1.5253-0.9979 0.8359-1.8135 1.892-2.375 3.0645-0.33859
      0.687-0.57866 1.4128-0.72462 2.1563-0.14596 0.7434-0.19678 1.5044-0.1582
      2.2617 0.038577 0.7573 0.16777 1.5093 0.38281 2.2383s0.51502 1.433 0.89841
      2.09c1.8563 3.547 3.6772 7.114 5.5567 10.648 0.2462 0.403 0.5884 0.722
      0.9824 0.949 0.394 0.228 0.8399 0.365 1.2949 0.409 0.4551 0.043 0.9182-0.008
      1.3472-0.159 0.43-0.15 0.826-0.398 1.143-0.752 0.773-0.944 1.15-2.141
      1.721-3.216 1.473-3.104 3.005-6.183 4.437-9.305 0.395-0.963 0.599-1.983
      0.627-3.0098
      0.029-1.0264-0.116-2.0583-0.42-3.041s-0.766-1.9166-1.369-2.748-1.346-1.5602-2.215-2.1328c-0.822-0.5833-1.739-1.0054-2.699-1.2696-0.96-0.2641-1.9616-0.36966-2.957-0.32027zm0.0489
      1.0117c1.7791-0.08828 3.5861 0.3683 5.0291 1.3926l0.014 0.0098 0.014 0.0098c3.046
      2.0089 4.386 6.3373 3.003 9.7146 0 0.001 0.001 0.003 0 0.004-1.412 3.076-2.932
      6.124-4.398 9.213-0.624 1.174-0.993 2.276-1.594 3.023-0.794 0.868-2.5382
      0.696-3.1521-0.302-1.8651-3.508-3.6764-7.055-5.5274-10.592l-0.0117-0.02-0.0117-0.021c-1.3671-2.343-1.5554-5.3819-0.3633-7.8009l0.002-0.0039
      0.0019-0.0059c0.4998-1.0436 1.2277-1.9866 2.1133-2.7285l0.0059-0.0058
      0.0058-0.0059c1.3374-1.1588 3.0904-1.7925 4.8692-1.8809z'
      fill='rgba(0, 0, 0, 0.477)'/>
</svg>
